<svg xmlns="http://www.w3.org/2000/svg" width="107.5" height="212.4" viewBox="0 0 107.5 212.4"><path fill="#b4fff4" d="M98 157.4l-15.7-25.9c2.9-10 5.2-21.2 5.2-32.1 0-1.5 0-2.9-.1-4.3-1.6-28.9-12.8-39.3-21.1-47.6-3.9-3.9-7-7.3-9.1-12.1 0-.1-.1-.2-.1-.3a8.5 8.5 0 0 0 3.5-1.2 4.8 4.8 0 0 0 2.3-4.3l-.4-1.1c-.7-.7-2.7-1.1-5.9-1.2a20.9 20.9 0 0 1 0-5.6c.2-1 .2-1 1.6-1.1h.3a1.9 1.9 0 0 0 1.7-1.1c.5-1.1-.2-2.4-.6-3.1l-.2-.3-.2-.5C57 10 55.8 6.1 55.8 4S55.2.5 54.7.2a1.2 1.2 0 0 0-1.4 0c-.3.2-1.2.7-1.2 3.8 0 1.4-.6 4.6-3.5 11.6v.4l-.2.3a4.8 4.8 0 0 0-.8 2.3 2 2 0 0 0 1.9 1.9h.3c1.4.1 1.4.1 1.6 1.1s.2 2.4.2 3.4a7.8 7.8 0 0 1-.2 2.2c-3.2.1-5.2.5-5.9 1.2l-.5 1.2a4.8 4.8 0 0 0 2.3 4.3 8.5 8.5 0 0 0 3.5 1.2c0 .1-.1.2-.1.3-2.1 4.8-5.5 8.3-9.5 12.3-8.3 8.3-19.5 18.6-21.1 47.4-.1 1.4-.1 2.8-.1 4.3 0 10.9 2.3 22.1 5.2 32.1L9.5 157.4l-9.5 55h10.7l10-34.9 16.9-14.1.6.2 1.8.6c.3 1.8.7 3.6.9 4.7s.6 3 8.4 3.6v39.9h8.9v-39.9c8.3-.5 8.7-2.7 8.8-3.5s.6-3 .9-4.8l1.8-.6h.4l16.7 14 10 34.9h10.7z"/></svg>